<?xml version="1.0" standalone="no"?>
<!DOCTYPE svg PUBLIC "-//W3C//DTD SVG 20010904//EN"
 "http://www.w3.org/TR/2001/REC-SVG-20010904/DTD/svg10.dtd">
<svg version="1.0" xmlns="http://www.w3.org/2000/svg"
 width="200.000000pt" height="200.000000pt" viewBox="0 0 200.000000 200.000000"
 preserveAspectRatio="xMidYMid meet">

<g transform="translate(0.000000,200.000000) scale(0.100000,-0.100000)"
fill="#000000" stroke="none">
<path d="M860 1618 c-68 -73 -163 -174 -212 -225 -48 -51 -88 -95 -88 -99 0
-7 30 20 231 213 42 40 93 93 113 118 21 25 43 45 50 45 7 0 24 13 39 28 21
22 24 31 15 40 -7 7 -15 12 -18 12 -3 0 -62 -60 -130 -132z"/>
<path d="M1006 1678 c-25 -32 -25 -33 -5 -42 16 -8 25 -4 45 15 24 25 24 26 6
43 -19 16 -21 16 -46 -16z"/>
<path d="M1060 1635 c-21 -23 -22 -27 -9 -40 13 -14 18 -13 39 10 21 23 22 27
9 40 -13 14 -18 13 -39 -10z"/>
<path d="M823 1445 c-70 -92 -128 -170 -128 -175 0 -12 324 -262 335 -258 9 3
260 323 260 332 0 3 -235 189 -327 258 -8 6 -52 -43 -140 -157z m207 -98 c16
-12 29 -26 29 -30 1 -14 -51 -77 -63 -77 -6 0 -26 13 -45 29 l-34 28 29 41
c31 45 39 45 84 9z"/>
<path d="M1105 1590 c-16 -18 -17 -23 -4 -35 12 -12 17 -12 39 5 20 15 22 20
11 34 -17 21 -24 20 -46 -4z"/>
<path d="M1157 1546 c-15 -22 -15 -26 -1 -37 12 -10 19 -9 35 7 19 20 19 21 1
37 -18 17 -20 16 -35 -7z"/>
<path d="M1207 1502 c-16 -17 -16 -20 -2 -32 13 -11 19 -11 33 3 15 15 15 19
1 32 -14 14 -17 14 -32 -3z"/>
<path d="M1257 1463 c-12 -12 -7 -31 10 -37 24 -9 39 9 23 29 -14 16 -23 19
-33 8z"/>
<path d="M1306 1411 c-8 -12 21 -34 34 -26 8 5 8 11 -1 21 -13 16 -25 18 -33
5z"/>
<path d="M1350 1355 c-6 -16 -27 -50 -47 -75 -62 -77 -59 -77 17 -3 70 68 74
74 58 90 -16 15 -18 15 -28 -12z"/>
<path d="M1260 1173 c-332 -356 -333 -359 -40 -84 102 96 194 182 204 192 16
15 17 21 6 33 -7 9 -15 16 -19 15 -3 0 -71 -70 -151 -156z"/>
<path d="M609 1253 c-13 -16 -12 -17 4 -4 9 7 17 15 17 17 0 8 -8 3 -21 -13z"/>
<path d="M655 1209 c-11 -17 1 -21 15 -4 8 9 8 15 2 15 -6 0 -14 -5 -17 -11z"/>
<path d="M704 1158 l-19 -23 23 19 c21 18 27 26 19 26 -2 0 -12 -10 -23 -22z"/>
<path d="M754 1119 c-19 -22 -19 -22 4 -8 12 8 22 17 22 21 0 12 -6 9 -26 -13z"/>
<path d="M805 1073 l-17 -28 23 22 c12 12 20 25 17 28 -3 3 -13 -7 -23 -22z"/>
<path d="M859 1033 l-24 -28 28 24 c25 23 32 31 24 31 -2 0 -14 -12 -28 -27z"/>
<path d="M905 990 c-16 -17 -24 -30 -19 -30 13 0 59 48 52 55 -2 3 -17 -9 -33
-25z"/>
<path d="M950 938 l-23 -33 31 29 c34 31 37 36 24 36 -5 0 -19 -15 -32 -32z"/>
<path d="M597 612 c-30 -33 -22 -96 24 -172 33 -57 40 -76 37 -112 -2 -36 -7
-44 -26 -46 -18 -3 -23 2 -28 27 -8 39 -24 40 -24 2 0 -20 8 -35 22 -45 49
-34 78 -8 78 71 0 48 -6 65 -40 119 -43 68 -50 112 -24 139 20 20 44 3 44 -31
0 -13 5 -24 10 -24 6 0 10 16 10 35 0 51 -50 74 -83 37z"/>
<path d="M1158 619 c-16 -9 -18 -29 -18 -184 0 -110 4 -175 10 -175 6 0 10 30
10 71 l0 70 28 -3 c26 -3 27 -4 27 -71 0 -47 4 -67 13 -67 20 0 17 318 -4 348
-16 24 -39 27 -66 11z m46 -25 c11 -11 16 -35 16 -82 0 -75 -9 -96 -36 -90
-33 6 -31 188 2 188 1 0 10 -7 18 -16z"/>
<path d="M740 440 c0 -142 3 -180 13 -180 11 0 13 38 13 180 -1 137 -4 180
-13 180 -10 0 -13 -43 -13 -180z"/>
<path d="M831 440 c1 -140 4 -180 14 -180 10 0 13 25 11 105 0 58 2 105 6 105
4 0 19 -20 33 -43 19 -34 25 -57 25 -105 0 -35 4 -62 10 -62 6 0 10 67 10 180
0 113 -4 180 -10 180 -6 0 -10 -33 -10 -80 0 -44 -4 -80 -9 -80 -19 0 -54 76
-54 118 0 29 -4 42 -13 42 -11 0 -14 -35 -13 -180z"/>
<path d="M985 610 c3 -5 13 -10 21 -10 12 0 14 -29 14 -170 0 -144 2 -170 15
-170 13 0 15 26 15 170 0 163 1 170 20 170 11 0 20 5 20 10 0 6 -25 10 -56 10
-34 0 -53 -4 -49 -10z"/>
<path d="M1300 440 l0 -180 38 0 c21 0 43 5 50 12 8 8 12 60 12 168 0 108 -4
160 -12 168 -7 7 -29 12 -50 12 l-38 0 0 -180z m74 144 c3 -9 6 -75 6 -148 0
-136 -5 -156 -42 -156 -17 0 -18 13 -18 160 l0 160 24 0 c13 0 27 -7 30 -16z"/>
</g>
</svg>
