<?xml version="1.0" standalone="no"?>
<!DOCTYPE svg PUBLIC "-//W3C//DTD SVG 20010904//EN"
 "http://www.w3.org/TR/2001/REC-SVG-20010904/DTD/svg10.dtd">
<svg version="1.0" xmlns="http://www.w3.org/2000/svg"
 width="300.000000pt" height="168.000000pt" viewBox="0 0 300.000000 168.000000"
 preserveAspectRatio="xMidYMid meet">

<g transform="translate(0.000000,168.000000) scale(0.100000,-0.100000)"
fill="#000000" stroke="none">
<path d="M1825 1078 c-99 -105 -205 -218 -235 -252 l-54 -61 54 50 c167 151
300 281 330 320 19 25 41 45 50 45 9 0 29 13 45 30 23 24 26 32 15 45 -7 8
-15 15 -19 15 -3 0 -87 -86 -186 -192z"/>
<path d="M2025 1190 c-28 -29 -28 -30 -9 -44 17 -14 22 -12 48 14 25 24 27 31
16 44 -17 22 -22 20 -55 -14z"/>
<path d="M2080 1145 c-22 -24 -23 -26 -7 -42 16 -16 19 -16 44 9 22 23 24 29
13 42 -17 21 -23 20 -50 -9z"/>
<path d="M1953 1097 c-11 -12 -75 -93 -143 -180 -102 -132 -120 -161 -109
-171 28 -26 332 -258 343 -262 11 -4 271 318 281 348 2 7 -43 49 -103 94 -59
45 -139 107 -178 137 l-71 56 -20 -22z m98 -258 l39 -31 -32 -44 c-17 -24 -33
-44 -36 -44 -15 0 -90 65 -85 74 19 32 57 76 65 76 6 0 28 -14 49 -31z"/>
<path d="M2132 1097 c-17 -18 -19 -26 -10 -35 17 -17 32 -15 53 8 15 16 15 22
5 35 -17 20 -23 19 -48 -8z"/>
<path d="M2184 1049 c-18 -20 -18 -21 1 -35 17 -13 21 -12 39 5 16 17 17 23 6
35 -16 21 -23 20 -46 -5z"/>
<path d="M2237 1002 c-15 -16 -15 -19 5 -31 17 -11 23 -10 36 3 13 12 13 18 2
30 -16 20 -23 20 -43 -2z"/>
<path d="M532 988 c-7 -7 -12 -37 -12 -67 0 -46 6 -66 41 -123 34 -58 40 -75
37 -116 -3 -43 -5 -47 -28 -47 -21 0 -26 5 -28 33 -2 17 -9 32 -15 32 -9 0
-11 -13 -9 -41 5 -50 39 -70 78 -44 21 13 24 23 24 75 0 52 -5 67 -40 122 -32
51 -40 72 -40 111 0 33 5 49 15 53 21 9 45 -14 45 -42 0 -13 5 -24 10 -24 14
0 12 64 -2 78 -15 15 -61 15 -76 0z"/>
<path d="M690 805 c0 -123 4 -195 10 -195 6 0 10 72 10 195 0 123 -4 195 -10
195 -6 0 -10 -72 -10 -195z"/>
<path d="M788 805 c-2 -148 0 -195 9 -195 9 0 13 33 15 118 l3 117 28 -46 c23
-39 27 -57 27 -117 0 -41 4 -72 10 -72 6 0 10 72 10 195 0 118 -4 195 -10 195
-5 0 -11 -41 -12 -92 l-3 -92 -27 42 c-21 31 -28 54 -28 92 0 27 -4 50 -10 50
-5 0 -10 -79 -12 -195z"/>
<path d="M950 985 c0 -8 9 -15 20 -15 19 0 20 -7 20 -180 0 -113 4 -180 10
-180 6 0 10 67 10 180 0 173 1 180 20 180 11 0 20 7 20 15 0 11 -12 15 -50 15
-38 0 -50 -4 -50 -15z"/>
<path d="M1122 988 c-15 -15 -17 -378 -2 -378 6 0 10 32 10 75 l0 75 30 0 30
0 0 -75 c0 -43 4 -75 10 -75 15 0 13 363 -2 378 -15 15 -61 15 -76 0z m56 -20
c7 -7 12 -44 12 -95 l0 -83 -30 0 -30 0 0 83 c0 75 9 107 30 107 3 0 11 -5 18
-12z"/>
<path d="M1280 806 l0 -196 38 0 c67 0 72 14 72 191 0 177 -4 187 -68 196
l-42 6 0 -197z m80 145 c5 -11 10 -80 10 -153 0 -142 -9 -174 -46 -166 -18 3
-19 14 -22 171 l-2 167 24 0 c15 0 30 -8 36 -19z"/>
<path d="M2291 957 c-8 -11 -6 -18 8 -31 16 -15 19 -15 31 -1 10 12 10 18 0
30 -15 19 -24 19 -39 2z"/>
<path d="M2344 908 c-9 -15 27 -41 40 -28 6 6 5 15 -4 25 -15 18 -26 19 -36 3z"/>
<path d="M2399 868 c0 -2 -2 -11 -4 -20 -2 -9 -29 -50 -61 -90 l-58 -73 82 74
c45 41 82 78 82 81 0 14 -37 39 -41 28z"/>
<path d="M2245 598 c-213 -224 -282 -304 -184 -212 30 28 128 119 219 204 91
84 176 163 189 176 21 19 22 25 11 38 -7 9 -15 16 -19 16 -3 0 -101 -100 -216
-222z"/>
<path d="M1599 733 c-13 -16 -12 -17 4 -4 16 13 21 21 13 21 -2 0 -10 -8 -17
-17z"/>
<path d="M1649 683 c-13 -16 -12 -17 4 -4 16 13 21 21 13 21 -2 0 -10 -8 -17
-17z"/>
<path d="M1704 638 l-19 -23 23 19 c21 18 27 26 19 26 -2 0 -12 -10 -23 -22z"/>
<path d="M1759 593 l-24 -28 28 24 c15 14 27 26 27 28 0 8 -8 1 -31 -24z"/>
<path d="M1809 543 l-24 -28 28 24 c15 14 27 26 27 28 0 8 -8 1 -31 -24z"/>
<path d="M1864 498 l-29 -33 33 29 c30 28 37 36 29 36 -2 0 -16 -15 -33 -32z"/>
<path d="M1916 452 l-30 -37 37 34 c38 36 42 42 30 40 -5 0 -21 -17 -37 -37z"/>
<path d="M1970 407 l-33 -42 39 37 c21 21 36 40 33 43 -3 3 -21 -14 -39 -38z"/>
</g>
</svg>
