<?xml version="1.0" standalone="no"?>
<!DOCTYPE svg PUBLIC "-//W3C//DTD SVG 20010904//EN"
 "http://www.w3.org/TR/2001/REC-SVG-20010904/DTD/svg10.dtd">
<svg version="1.0" xmlns="http://www.w3.org/2000/svg"
 width="225.000000pt" height="225.000000pt" viewBox="0 0 225.000000 225.000000"
 preserveAspectRatio="xMidYMid meet">

<g transform="translate(0.000000,225.000000) scale(0.100000,-0.100000)"
fill="#000000" stroke="none">
<path d="M760 1609 c-495 -527 -524 -559 -512 -559 6 0 156 137 334 304 222
209 345 333 392 395 59 76 73 90 92 85 17 -4 36 8 85 55 l64 60 -35 35 -35 35
-385 -410z"/>
<path d="M1177 1855 l-58 -63 36 -28 36 -27 59 58 60 59 -32 33 c-18 18 -34
32 -37 32 -4 -1 -32 -30 -64 -64z"/>
<path d="M1280 1765 l-55 -55 30 -25 c17 -13 35 -24 40 -25 6 0 33 22 60 50
l49 50 -29 30 c-16 16 -31 30 -35 30 -3 0 -30 -25 -60 -55z"/>
<path d="M1385 1679 l-50 -51 34 -28 34 -29 48 42 c27 23 49 44 49 48 0 3 -15
19 -33 37 l-33 32 -49 -51z"/>
<path d="M797 1373 c-147 -189 -269 -348 -270 -353 -2 -8 693 -553 698 -548
19 22 544 702 542 703 -1 1 -155 120 -342 265 -187 145 -345 267 -350 271 -6
4 -117 -130 -278 -338z m425 -200 l76 -59 -65 -85 c-36 -46 -69 -83 -75 -81
-11 3 -158 118 -161 126 -1 3 27 44 62 90 40 53 69 82 75 77 6 -4 45 -35 88
-68z"/>
<path d="M1486 1590 c-20 -22 -36 -44 -36 -48 0 -8 54 -52 65 -52 3 0 23 16
45 37 l41 36 -33 34 c-17 18 -35 33 -39 33 -4 0 -23 -18 -43 -40z"/>
<path d="M1588 1498 l-35 -43 35 -28 36 -28 35 36 36 35 -36 36 -36 35 -35
-43z"/>
<path d="M1691 1406 l-33 -34 37 -28 36 -27 30 29 29 30 -33 32 -33 32 -33
-34z"/>
<path d="M1790 1315 l-24 -26 29 -24 c36 -30 41 -30 70 -6 l24 18 -32 32 c-18
17 -35 31 -38 31 -3 0 -16 -11 -29 -25z"/>
<path d="M1897 1232 c-10 -11 -15 -26 -12 -34 4 -9 -24 -53 -71 -114 -42 -54
-100 -128 -128 -164 l-50 -65 70 65 c38 36 116 109 173 163 l104 98 -34 35
c-34 34 -36 34 -52 16z"/>
<path d="M1560 675 c-245 -261 -446 -480 -449 -487 -4 -16 -12 -23 389 353
178 167 382 358 452 424 l128 119 -32 33 c-18 18 -34 33 -37 33 -4 0 -206
-214 -451 -475z"/>
<path d="M449 1083 c-13 -16 -12 -17 4 -4 9 7 17 15 17 17 0 8 -8 3 -21 -13z"/>
<path d="M385 1010 c-27 -27 -46 -53 -42 -56 4 -4 13 -1 22 6 14 12 78 100 72
100 -2 0 -25 -22 -52 -50z"/>
<path d="M457 892 c-15 -16 -24 -32 -20 -35 7 -8 63 41 63 55 0 15 -16 8 -43
-20z"/>
<path d="M561 803 c-17 -20 -28 -39 -26 -42 6 -6 75 60 75 71 0 18 -20 6 -49
-29z"/>
<path d="M666 714 c-21 -25 -37 -47 -35 -49 2 -1 24 15 48 36 27 24 41 43 35
49 -5 5 -25 -10 -48 -36z"/>
<path d="M765 620 c-27 -28 -44 -50 -38 -50 18 0 108 86 97 93 -6 3 -33 -16
-59 -43z"/>
<path d="M870 535 c-30 -30 -51 -58 -47 -62 4 -4 33 18 63 49 31 30 52 58 47
61 -5 3 -34 -18 -63 -48z"/>
<path d="M967 442 c-32 -32 -54 -61 -50 -65 7 -8 123 101 123 115 0 18 -19 5
-73 -50z"/>
<path d="M1071 353 c-34 -36 -59 -68 -57 -71 8 -7 146 121 140 130 -10 16 -23
7 -83 -59z"/>
</g>
</svg>
